# xmcd CD database file
#
# Track frame offsets:
#	150
#	12005
#	25557
#	38932
#	49597
#	63140
#	72700
#	83432
#	96625
#	112462
#	122922
#
# Disc length: 1889 seconds
#
# Revision: 3
# Processed by: cddbd v1.5.1PL0 Copyright (c) Steve Scherf et al.
# Submitted via: CDex 1.51
#
DISCID=92075f0b
DTITLE=Jeanette Williams - Cherry Blossoms In The Springtime
DYEAR=1999
DGENRE=Bluegrass
TTITLE0=Break My Heart
TTITLE1=Careful Of My Heart
TTITLE2=Cherry Blossoms In The Springtime
TTITLE3=To Late To Say Goodbye
TTITLE4=It's Just A Matter Of Time
TTITLE5=What Will Become Of Me
TTITLE6=Leavin's Heavy On My Mind
TTITLE7=Lonely Side Of Goodbye
TTITLE8=In His Arms I'm Not Afraid
TTITLE9=Stripped Of My Pride
TTITLE10=Your Last Mile
EXTD=YEAR: 1999
EXTT0=
EXTT1=
EXTT2=
EXTT3=
EXTT4=
EXTT5=
EXTT6=
EXTT7=
EXTT8=
EXTT9=
EXTT10=
PLAYORDER=
